{"title":"Knock Knock 2015 BRRip XviD AC3-RARBG","uid":12585459,"size":1510896532,"categoryP":"video","categoryS":"movies","magnet":"?xt=urn:btih:506bce9a7fcf48b7a54a769792724434c5acf14e&amp;dn=Knock+Knock+2015+BRRip+XviD+AC3-RARBG&amp;tr=udp%3A%2F%2Ftracker.leechers-paradise.org%3A6969&amp;tr=udp%3A%2F%2Fzer0day.ch%3A1337&amp;tr=udp%3A%2F%2Fopen.demonii.com%3A1337&amp;tr=udp%3A%2F%2Ftracker.coppersurfer.tk%3A6969&amp;tr=udp%3A%2F%2Fexodus.desync.com%3A6969","seeders":0,"leechers":0,"uploader":"TheRival","files":6,"time":1445008248,"description":"Video\r\nID : 0\r\nFormat : MPEG-4 Visual\r\nFormat profile :   \r\nFormat settings, BVOP : No\r\nFormat settings, QPel : No\r\nFormat settings, GMC : No warppoints\r\nFormat settings, Matrix : Default (H.263)\r\nCodec ID : XVID\r\nCodec ID/Hint : XviD\r\nDuration : 1h 39mn\r\nBit rate : 1 564 Kbps\r\nWidth : 720 pixels\r\nHeight : 302 pixels\r\nDisplay aspect ratio : 2.40:1\r\nFrame rate : 23.976 fps\r\nColor space : YUV\r\nChroma subsampling : 4:2:0\r\nBit depth : 8 bits\r\nScan type : Progressive\r\nCompression mode : Lossy\r\nBits/(Pixel*Frame) : 0.300\r\nStream size : 1.08 GiB (77%)\r\nWriting library : Lavc56.60.100\r\n\r\nAudio\r\nID : 1\r\nFormat : AC-3\r\nFormat/Info : Audio Coding 3\r\nMode extension : CM (complete main)\r\nFormat settings, Endianness : Big\r\nCodec ID : 2000\r\nDuration : 1h 39mn\r\nBit rate mode : Constant\r\nBit rate : 448 Kbps\r\nChannel(s) : 6 channels\r\nChannel positions : Front: L C R, Side: L R, LFE\r\nSampling rate : 48.0 KHz\r\nCompression mode : Lossy\r\nStream size : 318 MiB (22%)\r\nAlignment : Aligned on interleaves\r\nInterleave, duration : 42 ms (1.00 video frame)\r\nInterleave, preload duration : 512 ms","torrent":{"xt":"urn:btih:506bce9a7fcf48b7a54a769792724434c5acf14e","amp;dn":"Knock+Knock+2015+BRRip+XviD+AC3-RARBG","amp;tr":["udp%3A%2F%2Ftracker.leechers-paradise.org%3A6969","udp%3A%2F%2Fzer0day.ch%3A1337","udp%3A%2F%2Fopen.demonii.com%3A1337","udp%3A%2F%2Ftracker.coppersurfer.tk%3A6969","udp%3A%2F%2Fexodus.desync.com%3A6969"],"infoHash":"506bce9a7fcf48b7a54a769792724434c5acf14e","infoHashBuffer":{"type":"Buffer","data":[80,107,206,154,127,207,72,183,165,74,118,151,146,114,68,52,197,172,241,78]},"announce":[],"urlList":[]}}